<svg width="32" height="32" viewBox="0 0 32 32" fill="none" xmlns="http://www.w3.org/2000/svg">
<g clip-path="url(#clip0_1_212)">
<mask id="path-1-inside-1_1_212" fill="white">
<path d="M13.1989 5C13.0931 5.00068 12.992 5.04315 12.9175 5.11815C12.843 5.19314 12.8011 5.29457 12.8011 5.40029V7.12314C10.7223 7.80181 8.91433 9.12621 7.64032 10.9036C6.36631 12.6809 5.69276 14.8185 5.71772 17.0051H4.35314C4.25948 17.0051 4.16966 17.0423 4.10343 17.1086C4.03721 17.1748 4 17.2646 4 17.3583V19.2234C4 19.3171 4.03721 19.4069 4.10343 19.4731C4.16966 19.5394 4.25948 19.5766 4.35314 19.5766H27.6469C27.7405 19.5766 27.8303 19.5394 27.8966 19.4731C27.9628 19.4069 28 19.3171 28 19.2234V17.3583C28 17.2646 27.9628 17.1748 27.8966 17.1086C27.8303 17.0423 27.7405 17.0051 27.6469 17.0051H26.2789C26.3045 14.8186 25.6317 12.6809 24.3583 10.9032C23.0849 9.12554 21.2774 7.80067 19.1989 7.12143V5.40029C19.1989 5.29457 19.157 5.19314 19.0825 5.11815C19.008 5.04315 18.9069 5.00068 18.8011 5H13.1989ZM13.5991 5.80057H15.5997V9.8H16.4003V5.80057H18.4V11C18.3956 11.0551 18.4026 11.1105 18.4206 11.1627C18.4387 11.215 18.4674 11.2629 18.5048 11.3035C18.5423 11.3441 18.5878 11.3766 18.6384 11.3987C18.6891 11.4209 18.7437 11.4323 18.799 11.4323C18.8543 11.4323 18.9089 11.4209 18.9596 11.3987C19.0102 11.3766 19.0557 11.3441 19.0932 11.3035C19.1306 11.2629 19.1593 11.215 19.1774 11.1627C19.1954 11.1105 19.2024 11.0551 19.198 11V7.95714C21.0591 8.62086 22.6661 9.84998 23.7939 11.4724C24.9218 13.0949 25.514 15.0294 25.4877 17.0051H25.036C24.9423 17.0051 24.8525 17.0423 24.7863 17.1086C24.7201 17.1748 24.6829 17.2646 24.6829 17.3583C24.6829 17.4519 24.7201 17.5418 24.7863 17.608C24.8525 17.6742 24.9423 17.7114 25.036 17.7114H27.2929V18.8703H4.70629V17.7114H6.96314C7.0568 17.7114 7.14663 17.6742 7.21285 17.608C7.27908 17.5418 7.31629 17.4519 7.31629 17.3583C7.31629 17.2646 7.27908 17.1748 7.21285 17.1086C7.14663 17.0423 7.0568 17.0051 6.96314 17.0051H6.50886C6.48266 15.0289 7.07508 13.0938 8.20321 11.471C9.33134 9.84808 10.9387 8.61858 12.8003 7.95457V11C12.7967 11.0547 12.8044 11.1095 12.8228 11.161C12.8413 11.2126 12.8701 11.2598 12.9076 11.2998C12.945 11.3398 12.9902 11.3717 13.0405 11.3934C13.0908 11.4152 13.1449 11.4265 13.1997 11.4265C13.2545 11.4265 13.3087 11.4152 13.3589 11.3934C13.4092 11.3717 13.4544 11.3398 13.4919 11.2998C13.5293 11.2598 13.5582 11.2126 13.5766 11.161C13.5951 11.1095 13.6027 11.0547 13.5991 11V5.80057ZM10.4003 17C10.2941 17 10.1923 17.0422 10.1172 17.1172C10.0422 17.1923 10 17.2941 10 17.4003C10 17.5064 10.0422 17.6083 10.1172 17.6833C10.1923 17.7584 10.2941 17.8006 10.4003 17.8006H21.5997C21.7059 17.8006 21.8077 17.7584 21.8828 17.6833C21.9578 17.6083 22 17.5064 22 17.4003C22 17.2941 21.9578 17.1923 21.8828 17.1172C21.8077 17.0422 21.7059 17 21.5997 17H10.4003ZM4.40029 20.4629C4.29427 20.4629 4.19259 20.5049 4.11754 20.5798C4.0425 20.6547 4.00023 20.7563 4 20.8623V22.5423C3.99989 22.5949 4.01016 22.6471 4.03022 22.6957C4.05029 22.7444 4.07976 22.7886 4.11694 22.8259C4.15412 22.8631 4.19828 22.8927 4.24691 22.9129C4.29553 22.933 4.34765 22.9434 4.40029 22.9434H6.49943C6.72314 23.7997 7.05829 24.6191 7.50057 25.3863L6.02372 26.8606C5.94876 26.9356 5.90666 27.0374 5.90666 27.1434C5.90666 27.2495 5.94876 27.3512 6.02372 27.4263L9.00657 30.4091C9.04375 30.4464 9.08791 30.4759 9.13652 30.4961C9.18513 30.5162 9.23723 30.5266 9.28986 30.5266C9.34248 30.5266 9.39459 30.5162 9.4432 30.4961C9.49181 30.4759 9.53596 30.4464 9.57314 30.4091L11.0517 28.9297C11.8157 29.3735 12.6359 29.7125 13.4903 29.9377V32.0334C13.4903 32.1396 13.5325 32.2414 13.6075 32.3165C13.6826 32.3915 13.7844 32.4337 13.8906 32.4337H18.1094C18.2156 32.4337 18.3174 32.3915 18.3925 32.3165C18.4675 32.2414 18.5097 32.1396 18.5097 32.0334V29.9334C19.3652 29.711 20.1868 29.3745 20.9526 28.9331L22.4269 30.41C22.5019 30.485 22.6036 30.5271 22.7097 30.5271C22.8158 30.5271 22.9175 30.485 22.9926 30.41L25.9754 27.4271C26.0127 27.39 26.0422 27.3458 26.0624 27.2972C26.0825 27.2486 26.0929 27.1965 26.0929 27.1439C26.0929 27.0912 26.0825 27.0391 26.0624 26.9905C26.0422 26.9419 26.0127 26.8978 25.9754 26.8606L24.496 25.3803C24.94 24.6157 25.2794 23.798 25.5057 22.9434H27.5997C27.7059 22.9434 27.8077 22.9013 27.8828 22.8262C27.9578 22.7511 28 22.6493 28 22.5431V20.8623C28 20.7561 27.9578 20.6543 27.8828 20.5792C27.8077 20.5042 27.7059 20.462 27.5997 20.462L4.40029 20.4629ZM4.80057 21.2626H10.0137C10.0069 22.3091 10.2744 23.3391 10.7894 24.2502C11.3045 25.1612 12.0492 25.9214 12.9494 26.4551C13.8918 27.0115 14.9684 27.2995 16.0627 27.288C17.1569 27.2765 18.2272 26.966 19.1577 26.39C20.0282 25.8486 20.7452 25.0928 21.2401 24.1951C21.7351 23.2974 21.9914 22.2877 21.9846 21.2626H27.1994V22.1429H25.2451C25.1544 22.1427 25.0662 22.1734 24.9952 22.23C24.9242 22.2865 24.8745 22.3655 24.8543 22.454C24.6267 23.4506 24.2326 24.4016 23.6886 25.2671C23.6407 25.344 23.6203 25.4349 23.6307 25.5249C23.6411 25.6149 23.6818 25.6987 23.746 25.7626L25.1269 27.1434L22.7097 29.5606L21.334 28.1831C21.27 28.1191 21.1862 28.0786 21.0962 28.0683C21.0062 28.058 20.9154 28.0786 20.8386 28.1266C19.9709 28.668 19.0181 29.0592 18.0203 29.2837C17.9321 29.3039 17.8533 29.3533 17.7968 29.424C17.7403 29.4946 17.7094 29.5824 17.7091 29.6729V31.6331H14.2909V29.6763C14.2908 29.5857 14.26 29.4977 14.2035 29.4269C14.147 29.356 14.0681 29.3065 13.9797 29.2863C12.9833 29.0595 12.0322 28.6663 11.1666 28.1231C11.0898 28.0751 10.999 28.0546 10.909 28.0649C10.819 28.0751 10.7351 28.1156 10.6711 28.1797L9.29029 29.5606L6.87314 27.1434L8.25057 25.766C8.31445 25.7021 8.35482 25.6184 8.36509 25.5286C8.37536 25.4388 8.35494 25.3481 8.30714 25.2714C7.76579 24.404 7.37459 23.4515 7.15 22.454C7.12985 22.3658 7.08041 22.287 7.00974 22.2305C6.93907 22.174 6.85134 22.1431 6.76086 22.1429H4.80057V21.2626ZM10.8691 21.2626H21.1291C21.1369 22.1716 20.9029 23.0663 20.4511 23.8551C19.9993 24.6439 19.346 25.2985 18.558 25.7517C17.7701 26.205 16.8758 26.4406 15.9668 26.4345C15.0578 26.4285 14.1667 26.1809 13.3849 25.7171C12.6125 25.2596 11.9737 24.6074 11.5322 23.8258C11.0908 23.0441 10.8621 22.1603 10.8691 21.2626Z"/>
</mask>
<path d="M13.1989 5C13.0931 5.00068 12.992 5.04315 12.9175 5.11815C12.843 5.19314 12.8011 5.29457 12.8011 5.40029V7.12314C10.7223 7.80181 8.91433 9.12621 7.64032 10.9036C6.36631 12.6809 5.69276 14.8185 5.71772 17.0051H4.35314C4.25948 17.0051 4.16966 17.0423 4.10343 17.1086C4.03721 17.1748 4 17.2646 4 17.3583V19.2234C4 19.3171 4.03721 19.4069 4.10343 19.4731C4.16966 19.5394 4.25948 19.5766 4.35314 19.5766H27.6469C27.7405 19.5766 27.8303 19.5394 27.8966 19.4731C27.9628 19.4069 28 19.3171 28 19.2234V17.3583C28 17.2646 27.9628 17.1748 27.8966 17.1086C27.8303 17.0423 27.7405 17.0051 27.6469 17.0051H26.2789C26.3045 14.8186 25.6317 12.6809 24.3583 10.9032C23.0849 9.12554 21.2774 7.80067 19.1989 7.12143V5.40029C19.1989 5.29457 19.157 5.19314 19.0825 5.11815C19.008 5.04315 18.9069 5.00068 18.8011 5H13.1989ZM13.5991 5.80057H15.5997V9.8H16.4003V5.80057H18.4V11C18.3956 11.0551 18.4026 11.1105 18.4206 11.1627C18.4387 11.215 18.4674 11.2629 18.5048 11.3035C18.5423 11.3441 18.5878 11.3766 18.6384 11.3987C18.6891 11.4209 18.7437 11.4323 18.799 11.4323C18.8543 11.4323 18.9089 11.4209 18.9596 11.3987C19.0102 11.3766 19.0557 11.3441 19.0932 11.3035C19.1306 11.2629 19.1593 11.215 19.1774 11.1627C19.1954 11.1105 19.2024 11.0551 19.198 11V7.95714C21.0591 8.62086 22.6661 9.84998 23.7939 11.4724C24.9218 13.0949 25.514 15.0294 25.4877 17.0051H25.036C24.9423 17.0051 24.8525 17.0423 24.7863 17.1086C24.7201 17.1748 24.6829 17.2646 24.6829 17.3583C24.6829 17.4519 24.7201 17.5418 24.7863 17.608C24.8525 17.6742 24.9423 17.7114 25.036 17.7114H27.2929V18.8703H4.70629V17.7114H6.96314C7.0568 17.7114 7.14663 17.6742 7.21285 17.608C7.27908 17.5418 7.31629 17.4519 7.31629 17.3583C7.31629 17.2646 7.27908 17.1748 7.21285 17.1086C7.14663 17.0423 7.0568 17.0051 6.96314 17.0051H6.50886C6.48266 15.0289 7.07508 13.0938 8.20321 11.471C9.33134 9.84808 10.9387 8.61858 12.8003 7.95457V11C12.7967 11.0547 12.8044 11.1095 12.8228 11.161C12.8413 11.2126 12.8701 11.2598 12.9076 11.2998C12.945 11.3398 12.9902 11.3717 13.0405 11.3934C13.0908 11.4152 13.1449 11.4265 13.1997 11.4265C13.2545 11.4265 13.3087 11.4152 13.3589 11.3934C13.4092 11.3717 13.4544 11.3398 13.4919 11.2998C13.5293 11.2598 13.5582 11.2126 13.5766 11.161C13.5951 11.1095 13.6027 11.0547 13.5991 11V5.80057ZM10.4003 17C10.2941 17 10.1923 17.0422 10.1172 17.1172C10.0422 17.1923 10 17.2941 10 17.4003C10 17.5064 10.0422 17.6083 10.1172 17.6833C10.1923 17.7584 10.2941 17.8006 10.4003 17.8006H21.5997C21.7059 17.8006 21.8077 17.7584 21.8828 17.6833C21.9578 17.6083 22 17.5064 22 17.4003C22 17.2941 21.9578 17.1923 21.8828 17.1172C21.8077 17.0422 21.7059 17 21.5997 17H10.4003ZM4.40029 20.4629C4.29427 20.4629 4.19259 20.5049 4.11754 20.5798C4.0425 20.6547 4.00023 20.7563 4 20.8623V22.5423C3.99989 22.5949 4.01016 22.6471 4.03022 22.6957C4.05029 22.7444 4.07976 22.7886 4.11694 22.8259C4.15412 22.8631 4.19828 22.8927 4.24691 22.9129C4.29553 22.933 4.34765 22.9434 4.40029 22.9434H6.49943C6.72314 23.7997 7.05829 24.6191 7.50057 25.3863L6.02372 26.8606C5.94876 26.9356 5.90666 27.0374 5.90666 27.1434C5.90666 27.2495 5.94876 27.3512 6.02372 27.4263L9.00657 30.4091C9.04375 30.4464 9.08791 30.4759 9.13652 30.4961C9.18513 30.5162 9.23723 30.5266 9.28986 30.5266C9.34248 30.5266 9.39459 30.5162 9.4432 30.4961C9.49181 30.4759 9.53596 30.4464 9.57314 30.4091L11.0517 28.9297C11.8157 29.3735 12.6359 29.7125 13.4903 29.9377V32.0334C13.4903 32.1396 13.5325 32.2414 13.6075 32.3165C13.6826 32.3915 13.7844 32.4337 13.8906 32.4337H18.1094C18.2156 32.4337 18.3174 32.3915 18.3925 32.3165C18.4675 32.2414 18.5097 32.1396 18.5097 32.0334V29.9334C19.3652 29.711 20.1868 29.3745 20.9526 28.9331L22.4269 30.41C22.5019 30.485 22.6036 30.5271 22.7097 30.5271C22.8158 30.5271 22.9175 30.485 22.9926 30.41L25.9754 27.4271C26.0127 27.39 26.0422 27.3458 26.0624 27.2972C26.0825 27.2486 26.0929 27.1965 26.0929 27.1439C26.0929 27.0912 26.0825 27.0391 26.0624 26.9905C26.0422 26.9419 26.0127 26.8978 25.9754 26.8606L24.496 25.3803C24.94 24.6157 25.2794 23.798 25.5057 22.9434H27.5997C27.7059 22.9434 27.8077 22.9013 27.8828 22.8262C27.9578 22.7511 28 22.6493 28 22.5431V20.8623C28 20.7561 27.9578 20.6543 27.8828 20.5792C27.8077 20.5042 27.7059 20.462 27.5997 20.462L4.40029 20.4629ZM4.80057 21.2626H10.0137C10.0069 22.3091 10.2744 23.3391 10.7894 24.2502C11.3045 25.1612 12.0492 25.9214 12.9494 26.4551C13.8918 27.0115 14.9684 27.2995 16.0627 27.288C17.1569 27.2765 18.2272 26.966 19.1577 26.39C20.0282 25.8486 20.7452 25.0928 21.2401 24.1951C21.7351 23.2974 21.9914 22.2877 21.9846 21.2626H27.1994V22.1429H25.2451C25.1544 22.1427 25.0662 22.1734 24.9952 22.23C24.9242 22.2865 24.8745 22.3655 24.8543 22.454C24.6267 23.4506 24.2326 24.4016 23.6886 25.2671C23.6407 25.344 23.6203 25.4349 23.6307 25.5249C23.6411 25.6149 23.6818 25.6987 23.746 25.7626L25.1269 27.1434L22.7097 29.5606L21.334 28.1831C21.27 28.1191 21.1862 28.0786 21.0962 28.0683C21.0062 28.058 20.9154 28.0786 20.8386 28.1266C19.9709 28.668 19.0181 29.0592 18.0203 29.2837C17.9321 29.3039 17.8533 29.3533 17.7968 29.424C17.7403 29.4946 17.7094 29.5824 17.7091 29.6729V31.6331H14.2909V29.6763C14.2908 29.5857 14.26 29.4977 14.2035 29.4269C14.147 29.356 14.0681 29.3065 13.9797 29.2863C12.9833 29.0595 12.0322 28.6663 11.1666 28.1231C11.0898 28.0751 10.999 28.0546 10.909 28.0649C10.819 28.0751 10.7351 28.1156 10.6711 28.1797L9.29029 29.5606L6.87314 27.1434L8.25057 25.766C8.31445 25.7021 8.35482 25.6184 8.36509 25.5286C8.37536 25.4388 8.35494 25.3481 8.30714 25.2714C7.76579 24.404 7.37459 23.4515 7.15 22.454C7.12985 22.3658 7.08041 22.287 7.00974 22.2305C6.93907 22.174 6.85134 22.1431 6.76086 22.1429H4.80057V21.2626ZM10.8691 21.2626H21.1291C21.1369 22.1716 20.9029 23.0663 20.4511 23.8551C19.9993 24.6439 19.346 25.2985 18.558 25.7517C17.7701 26.205 16.8758 26.4406 15.9668 26.4345C15.0578 26.4285 14.1667 26.1809 13.3849 25.7171C12.6125 25.2596 11.9737 24.6074 11.5322 23.8258C11.0908 23.0441 10.8621 22.1603 10.8691 21.2626Z" fill="black" stroke="black" stroke-width="2" mask="url(#path-1-inside-1_1_212)"/>
</g>
<defs>
<clipPath id="clip0_1_212">
<rect width="32" height="32" fill="white"/>
</clipPath>
</defs>
</svg>
