<svg width="16" height="15" viewBox="0 0 16 15" fill="none" xmlns="http://www.w3.org/2000/svg">
<path d="M10.6667 6.16663L12.0996 6.5965C13.0151 6.87114 13.4728 7.00846 13.7364 7.36276C14 7.71706 14 8.19494 14 9.15071V14.1666" stroke="#47B59E" stroke-linejoin="round"/>
<path d="M5.33334 5.5L7.33334 5.5M5.33334 8.16667L7.33334 8.16667" stroke="#47B59E" stroke-linecap="round" stroke-linejoin="round"/>
<path d="M8.00002 14.1666V12.1666C8.00002 11.538 8.00002 11.2238 7.80476 11.0285C7.6095 10.8333 7.29523 10.8333 6.66669 10.8333H6.00002C5.37148 10.8333 5.05721 10.8333 4.86195 11.0285C4.66669 11.2238 4.66669 11.538 4.66669 12.1666V14.1666" stroke="#47B59E" stroke-linejoin="round"/>
<path d="M1.33334 14.1666L14.6667 14.1666" stroke="#47B59E" stroke-linecap="round"/>
<path d="M2 14.1666V3.97808C2 2.30425 2 1.46733 2.52746 1.05208C3.05491 0.636835 3.83161 0.862284 5.38501 1.31318L8.71835 2.28073C9.65576 2.55283 10.1245 2.68888 10.3956 3.05969C10.6667 3.4305 10.6667 3.93554 10.6667 4.94563V14.1666" stroke="#47B59E" stroke-linecap="round" stroke-linejoin="round"/>
</svg>
