<svg width="24" height="24" viewBox="0 0 24 24" fill="none" xmlns="http://www.w3.org/2000/svg">
<path d="M22.6739 24C23.4066 24 24 23.4061 24 22.6739V1.32609C24 0.593906 23.4061 0 22.6739 0H1.32609C0.593906 0 0 0.593906 0 1.32609V22.6734C0 23.4061 0.593906 24 1.32609 24H22.6739Z" fill="#4267B2"/>
<path d="M16.56 23.9999V14.7032H19.68L20.1473 11.0845H16.56V8.77306C16.56 7.72446 16.8506 7.01103 18.3539 7.01103H20.2739V3.77056C19.9392 3.72649 18.8025 3.62524 17.4759 3.62524C14.7098 3.62524 12.8147 5.31134 12.8147 8.41259V11.084H9.6886V14.7027H12.8213V23.9999H16.56Z" fill="white"/>
</svg>
