<svg width="17" height="18" viewBox="0 0 17 18" fill="none" xmlns="http://www.w3.org/2000/svg">
<path fill-rule="evenodd" clip-rule="evenodd" d="M15.9935 9.4061L11.4381 17L7.80932 14.4314L8.05011 13.8703L10.7092 15.7358L10.7417 15.7602C10.8019 15.8019 10.869 15.8301 10.9391 15.8431C11.0092 15.8562 11.081 15.8538 11.1503 15.8362C11.2196 15.8186 11.285 15.7861 11.3429 15.7406C11.4008 15.695 11.4499 15.6373 11.4875 15.5708L11.6346 15.3125H11.6424L12.3283 14.0827L15.452 9.01722L16 9.40323L15.9935 9.4061ZM3.99837 3.14099C4.3168 3.13314 4.63387 3.18905 4.93419 3.30601L4.71813 4.28179H4.63874C4.49994 4.20265 4.3554 4.13642 4.20662 4.08377C4.07721 4.04251 3.94305 4.0222 3.80835 4.0235C3.68627 4.01568 3.5645 4.04391 3.45563 4.10529C3.36644 4.17351 3.30338 4.27577 3.27861 4.39229C3.23631 4.59061 3.21793 4.79422 3.22395 4.99785C3.21797 5.20479 3.23635 5.41172 3.27861 5.61345C3.30323 5.73579 3.37056 5.84251 3.46604 5.91049C3.58467 5.97526 3.71653 6.00493 3.84869 5.99659C3.91107 5.99676 3.97334 5.991 4.03482 5.97937V5.80287L4.0205 5.20305L4.93159 5.1313L4.91597 5.61632V6.59641C4.54768 6.75384 4.15648 6.83601 3.76149 6.83892C3.24087 6.83892 2.84563 6.68538 2.57577 6.3783C2.30592 6.07121 2.17186 5.63163 2.17359 5.05955C2.17359 4.4339 2.33108 3.95797 2.64606 3.63175C2.96103 3.30553 3.41181 3.14194 3.99837 3.14099ZM6.66135 3.14099C6.98268 3.14196 7.30114 3.20761 7.60107 3.33471L7.44098 4.233L7.30042 4.30045C7.16938 4.20949 7.03026 4.13352 6.88522 4.07372C6.7803 4.02662 6.66903 3.99898 6.55593 3.99193C6.49215 3.98795 6.42873 4.00493 6.37371 4.04072C6.35285 4.05416 6.3356 4.07346 6.32371 4.09665C6.31182 4.11985 6.30572 4.1461 6.30603 4.17274C6.30726 4.20998 6.31743 4.24621 6.33549 4.27771C6.35355 4.30922 6.37887 4.33489 6.40885 4.35211C6.51868 4.42631 6.63306 4.492 6.75116 4.5487C6.9086 4.62412 7.062 4.7094 7.21061 4.80413C7.33482 4.88765 7.44205 4.99854 7.52558 5.12987C7.61706 5.28006 7.66266 5.45853 7.65574 5.63928C7.65756 5.8567 7.59897 6.06953 7.48784 6.24915C7.36718 6.43796 7.202 6.58682 7.01017 6.67964C6.78391 6.79098 6.53814 6.84586 6.29041 6.84036C5.92581 6.83533 5.5644 6.76456 5.22053 6.63085L5.36631 5.67085L5.46522 5.60484C5.61559 5.73214 5.7817 5.83507 5.95851 5.91049C6.09679 5.97738 6.24501 6.0158 6.39583 6.02386C6.46672 6.03003 6.53761 6.012 6.59888 5.9722C6.61768 5.95728 6.63302 5.93768 6.64365 5.91499C6.65428 5.89229 6.6599 5.86715 6.66005 5.84161C6.65895 5.80172 6.64856 5.76281 6.62987 5.72863C6.61117 5.69445 6.58481 5.66615 6.55332 5.64646C6.4445 5.5699 6.32999 5.50365 6.21101 5.44843C6.05541 5.37527 5.90413 5.2914 5.75807 5.19731C5.63625 5.11468 5.53158 5.00466 5.45091 4.87444C5.36009 4.72391 5.31455 4.54568 5.32075 4.36502C5.3186 4.14222 5.37807 3.92397 5.49125 3.73937C5.61 3.5466 5.77428 3.39328 5.96632 3.29596C6.1843 3.18629 6.42179 3.13186 6.66135 3.13668V3.14099ZM10.3578 3.28448L10.3031 4.08951L9.64321 4.0565H9.58334L9.55861 5.61632L9.59766 6.77291H8.59806L8.64882 5.72682L8.62279 4.0565H8.55772L7.89392 4.08951L7.83275 4.01345L7.88872 3.20843H10.3031L10.3578 3.28592V3.28448ZM6.32295 12.9562L6.24746 12.8701L5.16717 14.0942C5.16149 14.1027 5.15541 14.1108 5.14895 14.1186C5.11861 14.152 5.08259 14.1786 5.04295 14.1967C5.00331 14.2148 4.96083 14.2241 4.91792 14.2241C4.87501 14.2241 4.83253 14.2148 4.79289 14.1967C4.75325 14.1786 4.71723 14.152 4.68689 14.1186L3.55454 12.8701L2.38314 14.0956C2.32132 14.16 2.23913 14.1954 2.15405 14.194C2.06898 14.1927 1.98773 14.1548 1.9276 14.0884L0.819979 12.8515L0.588302 13.1385C0.547647 13.1985 0.491041 13.243 0.426361 13.2659C0.361681 13.2887 0.292143 13.2888 0.227422 13.2661C0.162702 13.2434 0.106017 13.1989 0.0652567 13.139C0.024496 13.0791 0.00168584 13.0067 0 12.9318L0 1.36018C0 1.26465 0.034419 1.17304 0.0956853 1.10549C0.156952 1.03795 0.240046 1 0.32669 1H12.2177C12.2605 1 12.3029 1.00933 12.3425 1.02744C12.3821 1.04556 12.418 1.07212 12.4482 1.10558C12.4785 1.13905 12.5024 1.17876 12.5187 1.22245C12.535 1.26614 12.5432 1.31295 12.5431 1.36018V4.11247L12.383 3.9991C12.311 3.94767 12.23 3.91344 12.1453 3.89861C12.0605 3.88378 11.9739 3.88868 11.891 3.913V1.71749H0.650777V12.0063C0.708667 11.9726 0.774409 11.959 0.839423 11.9672C0.904436 11.9754 0.965698 12.005 1.01521 12.0522C1.02148 12.0577 1.02716 12.0639 1.03213 12.0709H1.04124L2.16839 13.3408L3.33979 12.1168C3.40039 12.0511 3.48195 12.0144 3.56691 12.0144C3.65187 12.0144 3.73342 12.0511 3.79403 12.1168L4.91727 13.3552L6.00407 12.1211C6.06295 12.0535 6.14356 12.0141 6.22853 12.0114C6.31349 12.0087 6.39602 12.043 6.45831 12.1067L6.66396 12.3162L6.40364 12.7381C6.3654 12.8037 6.33766 12.876 6.32165 12.9519L6.32295 12.9562ZM7.82754 10.3733H2.49117C2.42731 10.3733 2.36607 10.3453 2.32091 10.2955C2.27575 10.2457 2.25039 10.1782 2.25039 10.1078C2.25039 10.0374 2.27575 9.96987 2.32091 9.92009C2.36607 9.8703 2.42731 9.84233 2.49117 9.84233H8.14643L7.82885 10.3733H7.82754ZM8.88831 8.60538H2.41959C2.35573 8.60538 2.29448 8.57741 2.24933 8.52763C2.20417 8.47784 2.1788 8.41032 2.1788 8.33991C2.1788 8.2695 2.20417 8.20198 2.24933 8.15219C2.29448 8.10241 2.35573 8.07444 2.41959 8.07444H9.20589L8.88831 8.60538ZM15.5666 7.76735L11.0111 15.3498L7.37721 12.7869L11.9326 5.193L15.5653 7.76161L15.5666 7.76735ZM12.245 9.83516C12.3419 10.0206 12.3867 10.2335 12.3737 10.447C12.3608 10.6605 12.2908 10.865 12.1725 11.0346C12.0542 11.2042 11.8929 11.3314 11.7091 11.3999C11.5252 11.4685 11.3271 11.4755 11.1397 11.4199C10.9523 11.3643 10.784 11.2487 10.6562 11.0877C10.5283 10.9267 10.4467 10.7276 10.4215 10.5154C10.3963 10.3033 10.4287 10.0876 10.5147 9.8958C10.6007 9.70396 10.7363 9.54453 10.9044 9.43767C11.0161 9.36649 11.1394 9.32031 11.2672 9.30177C11.3951 9.28322 11.525 9.29269 11.6496 9.32961C11.7741 9.36654 11.8908 9.4302 11.993 9.51696C12.0952 9.60371 12.1808 9.71184 12.245 9.83516ZM14.265 8.65848L11.2103 13.6694C11.0676 13.5693 10.8948 13.5355 10.7296 13.5756C10.5645 13.6157 10.4205 13.7263 10.3291 13.8832L8.89742 12.8687C8.94257 12.7909 8.97338 12.704 8.98806 12.6131C9.00276 12.5221 9.00105 12.4289 8.98304 12.3387C8.96503 12.2484 8.93107 12.163 8.8831 12.0873C8.83514 12.0115 8.7741 11.9469 8.70349 11.8972L11.7543 6.88341C11.8247 6.93322 11.9034 6.96724 11.9857 6.98352C12.068 6.99981 12.1525 6.99804 12.2342 6.97831C12.3159 6.95859 12.3933 6.9213 12.4619 6.86857C12.5306 6.81584 12.5891 6.74872 12.6342 6.67103L14.0724 7.68556C14.0272 7.76329 13.9963 7.85008 13.9815 7.94097C13.9667 8.03186 13.9683 8.12508 13.9862 8.21529C14.0041 8.3055 14.0379 8.39094 14.0858 8.46674C14.1336 8.54253 14.1945 8.6072 14.265 8.65704V8.65848Z" fill="#47B59E" stroke="white" stroke-width="0.1"/>
</svg>
