<svg width="24" height="24" viewBox="0 0 24 24" fill="none" xmlns="http://www.w3.org/2000/svg">
<g clip-path="url(#clip0_1_97)">
<path d="M12.0038 0C6.99427 0 5.52895 0.00515625 5.24395 0.0285938C4.21599 0.114375 3.57614 0.276094 2.87911 0.623438C2.34192 0.890156 1.91817 1.19953 1.50052 1.63313C0.738798 2.42344 0.277548 3.39609 0.110673 4.55203C0.0295797 5.11313 0.00567342 5.22797 0.000985921 8.09484C-0.000889079 9.05063 0.000985921 10.3083 0.000985921 11.9953C0.000985921 17.0025 0.00661092 18.4664 0.0305172 18.7509C0.113486 19.7517 0.270517 20.3812 0.602861 21.0698C1.23802 22.388 2.45067 23.3775 3.87895 23.7469C4.37349 23.8744 4.92005 23.9442 5.6213 23.9775C5.91849 23.9906 8.94755 23.9995 11.9785 23.9995C15.0094 23.9995 18.0399 23.9958 18.33 23.9813C19.1424 23.9428 19.614 23.8795 20.1352 23.745C21.5729 23.3737 22.7635 22.3992 23.4113 21.0623C23.7371 20.3902 23.9021 19.7367 23.9771 18.7884C23.9935 18.5817 24 15.2845 24 11.992C24 8.69906 23.9925 5.40797 23.9766 5.20125C23.9011 4.2375 23.7357 3.58922 23.3996 2.90437C23.1235 2.34375 22.8174 1.92469 22.3725 1.49672C21.5785 0.738281 20.6077 0.276562 19.4508 0.109687C18.8897 0.0290625 18.7782 0.00515625 15.9099 0H12.0038Z" fill="url(#paint0_radial_1_97)"/>
<path d="M12.0038 0C6.99427 0 5.52895 0.00515625 5.24395 0.0285938C4.21599 0.114375 3.57614 0.276094 2.87911 0.623438C2.34192 0.890156 1.91817 1.19953 1.50052 1.63313C0.738798 2.42344 0.277548 3.39609 0.110673 4.55203C0.0295797 5.11313 0.00567342 5.22797 0.000985921 8.09484C-0.000889079 9.05063 0.000985921 10.3083 0.000985921 11.9953C0.000985921 17.0025 0.00661092 18.4664 0.0305172 18.7509C0.113486 19.7517 0.270517 20.3812 0.602861 21.0698C1.23802 22.388 2.45067 23.3775 3.87895 23.7469C4.37349 23.8744 4.92005 23.9442 5.6213 23.9775C5.91849 23.9906 8.94755 23.9995 11.9785 23.9995C15.0094 23.9995 18.0399 23.9958 18.33 23.9813C19.1424 23.9428 19.614 23.8795 20.1352 23.745C21.5729 23.3737 22.7635 22.3992 23.4113 21.0623C23.7371 20.3902 23.9021 19.7367 23.9771 18.7884C23.9935 18.5817 24 15.2845 24 11.992C24 8.69906 23.9925 5.40797 23.9766 5.20125C23.9011 4.2375 23.7357 3.58922 23.3996 2.90437C23.1235 2.34375 22.8174 1.92469 22.3725 1.49672C21.5785 0.738281 20.6077 0.276562 19.4508 0.109687C18.8897 0.0290625 18.7782 0.00515625 15.9099 0H12.0038Z" fill="url(#paint1_radial_1_97)"/>
<path d="M12.0038 0C6.99427 0 5.52895 0.00515625 5.24395 0.0285938C4.21599 0.114375 3.57614 0.276094 2.87911 0.623438C2.34192 0.890156 1.91817 1.19953 1.50052 1.63313C0.738798 2.42344 0.277548 3.39609 0.110673 4.55203C0.0295797 5.11313 0.00567342 5.22797 0.000985921 8.09484C-0.000889079 9.05063 0.000985921 10.3083 0.000985921 11.9953C0.000985921 17.0025 0.00661092 18.4664 0.0305172 18.7509C0.113486 19.7517 0.270517 20.3812 0.602861 21.0698C1.23802 22.388 2.45067 23.3775 3.87895 23.7469C4.37349 23.8744 4.92005 23.9442 5.6213 23.9775C5.91849 23.9906 8.94755 23.9995 11.9785 23.9995C15.0094 23.9995 18.0399 23.9958 18.33 23.9813C19.1424 23.9428 19.614 23.8795 20.1352 23.745C21.5729 23.3737 22.7635 22.3992 23.4113 21.0623C23.7371 20.3902 23.9021 19.7367 23.9771 18.7884C23.9935 18.5817 24 15.2845 24 11.992C24 8.69906 23.9925 5.40797 23.9766 5.20125C23.9011 4.2375 23.7357 3.58922 23.3996 2.90437C23.1235 2.34375 22.8174 1.92469 22.3725 1.49672C21.5785 0.738281 20.6077 0.276562 19.4508 0.109687C18.8897 0.0290625 18.7782 0.00515625 15.9099 0H12.0038Z" fill="url(#paint2_radial_1_97)"/>
<path d="M12.0038 0C6.99427 0 5.52895 0.00515625 5.24395 0.0285938C4.21599 0.114375 3.57614 0.276094 2.87911 0.623438C2.34192 0.890156 1.91817 1.19953 1.50052 1.63313C0.738798 2.42344 0.277548 3.39609 0.110673 4.55203C0.0295797 5.11313 0.00567342 5.22797 0.000985921 8.09484C-0.000889079 9.05063 0.000985921 10.3083 0.000985921 11.9953C0.000985921 17.0025 0.00661092 18.4664 0.0305172 18.7509C0.113486 19.7517 0.270517 20.3812 0.602861 21.0698C1.23802 22.388 2.45067 23.3775 3.87895 23.7469C4.37349 23.8744 4.92005 23.9442 5.6213 23.9775C5.91849 23.9906 8.94755 23.9995 11.9785 23.9995C15.0094 23.9995 18.0399 23.9958 18.33 23.9813C19.1424 23.9428 19.614 23.8795 20.1352 23.745C21.5729 23.3737 22.7635 22.3992 23.4113 21.0623C23.7371 20.3902 23.9021 19.7367 23.9771 18.7884C23.9935 18.5817 24 15.2845 24 11.992C24 8.69906 23.9925 5.40797 23.9766 5.20125C23.9011 4.2375 23.7357 3.58922 23.3996 2.90437C23.1235 2.34375 22.8174 1.92469 22.3725 1.49672C21.5785 0.738281 20.6077 0.276562 19.4508 0.109687C18.8897 0.0290625 18.7782 0.00515625 15.9099 0H12.0038Z" fill="url(#paint3_radial_1_97)"/>
<path d="M12.0047 3.08154C9.58127 3.08154 9.27705 3.09232 8.32549 3.13545C7.37533 3.17904 6.72705 3.32904 6.15987 3.54982C5.57299 3.77764 5.07518 4.08232 4.57924 4.57779C4.08283 5.07326 3.77815 5.57107 3.5494 6.15701C3.32815 6.7242 3.17768 7.37248 3.13502 8.32123C3.09237 9.27233 3.08112 9.57654 3.08112 11.9981C3.08112 14.4197 3.0919 14.723 3.13502 15.674C3.17862 16.6233 3.32908 17.2711 3.5494 17.8383C3.77768 18.4247 4.08237 18.922 4.57877 19.418C5.07471 19.9139 5.57252 20.2195 6.15893 20.4473C6.72658 20.6676 7.37533 20.8181 8.32502 20.8617C9.27705 20.9048 9.5808 20.9156 12.0042 20.9156C14.4277 20.9156 14.731 20.9048 15.683 20.8617C16.6331 20.8181 17.2824 20.6681 17.85 20.4473C18.4369 20.2195 18.9338 19.9144 19.4297 19.4184C19.9261 18.923 20.2308 18.4251 20.4596 17.8392C20.6789 17.272 20.8294 16.6237 20.8739 15.675C20.9166 14.7239 20.9278 14.4206 20.9278 11.999C20.9278 9.57748 20.9166 9.27326 20.8739 8.32217C20.8294 7.37295 20.6789 6.72514 20.4596 6.15795C20.2308 5.57154 19.9261 5.0742 19.4297 4.57826C18.9333 4.08232 18.4369 3.77764 17.8496 3.54982C17.2805 3.32951 16.6317 3.17904 15.6821 3.13545C14.73 3.09232 14.4272 3.08154 12.0028 3.08154H12.0047ZM11.2046 4.68842C11.4422 4.68795 11.7071 4.68842 12.0052 4.68842C14.3878 4.68842 14.67 4.69686 15.6108 4.73951C16.4808 4.77936 16.9528 4.92467 17.2674 5.04654C17.6836 5.20826 17.9808 5.40139 18.293 5.71357C18.6052 6.02576 18.7988 6.32295 18.961 6.7392C19.0833 7.05326 19.2286 7.52482 19.2685 8.39436C19.3111 9.3342 19.3205 9.61686 19.3205 11.9962C19.3205 14.3761 19.3111 14.6583 19.2685 15.5981C19.2286 16.4676 19.0833 16.9392 18.961 17.2533C18.7992 17.6695 18.6056 17.9658 18.293 18.2775C17.9808 18.5897 17.6841 18.7828 17.2674 18.9445C16.9533 19.0673 16.4808 19.2122 15.6108 19.2515C14.67 19.2942 14.3874 19.3036 12.0052 19.3036C9.62252 19.3036 9.33987 19.2942 8.39955 19.2515C7.52955 19.2112 7.05752 19.0664 6.74252 18.944C6.32627 18.7823 6.02862 18.5892 5.71643 18.277C5.40424 17.9648 5.21065 17.6686 5.04846 17.2523C4.92612 16.9383 4.7808 16.4667 4.74096 15.5972C4.6983 14.6573 4.68987 14.3747 4.68987 11.9939C4.68987 9.61264 4.6983 9.33186 4.74096 8.39201C4.7808 7.52248 4.92612 7.05092 5.04846 6.73639C5.21018 6.32014 5.40377 6.02295 5.71643 5.71076C6.02862 5.39857 6.32627 5.20545 6.74252 5.04326C7.05705 4.92045 7.52955 4.77561 8.39955 4.73576C9.22268 4.69873 9.5419 4.68748 11.205 4.68561L11.2046 4.68842ZM16.7681 6.1692C16.1771 6.1692 15.6975 6.64779 15.6975 7.23889C15.6975 7.82951 16.1771 8.30904 16.7681 8.30904C17.3592 8.30904 17.8388 7.82998 17.8388 7.23889C17.8388 6.64779 17.3592 6.16873 16.7681 6.1692ZM12.0047 7.41936C9.47393 7.41936 7.42221 9.46967 7.42221 11.9986C7.42221 14.5275 9.47393 16.5769 12.0047 16.5769C14.5355 16.5769 16.5863 14.5275 16.5863 11.9986C16.5863 9.46967 14.5355 7.41936 12.0047 7.41936ZM12.0047 9.02623C13.6472 9.02623 14.9794 10.357 14.9794 11.9986C14.9794 13.6401 13.6477 14.9709 12.0047 14.9709C10.3617 14.9709 9.03002 13.6401 9.03002 11.9986C9.03049 10.3565 10.3622 9.02623 12.0047 9.02623Z" fill="white"/>
</g>
<defs>
<radialGradient id="paint0_radial_1_97" cx="0" cy="0" r="1" gradientUnits="userSpaceOnUse" gradientTransform="translate(23.2253 11.2492) rotate(164.251) scale(15.3347 11.0479)">
<stop stop-color="#FF005F"/>
<stop offset="1" stop-color="#FC01D8"/>
</radialGradient>
<radialGradient id="paint1_radial_1_97" cx="0" cy="0" r="1" gradientUnits="userSpaceOnUse" gradientTransform="translate(6.37489 25.8485) rotate(-90) scale(19.1573 20.3255)">
<stop stop-color="#FFCC00"/>
<stop offset="0.1242" stop-color="#FFCC00"/>
<stop offset="0.5672" stop-color="#FE4A05"/>
<stop offset="0.6942" stop-color="#FF0F3F"/>
<stop offset="1" stop-color="#FE0657" stop-opacity="0"/>
</radialGradient>
<radialGradient id="paint2_radial_1_97" cx="0" cy="0" r="1" gradientUnits="userSpaceOnUse" gradientTransform="translate(12.6063 23.6615) rotate(-59.8697) scale(7.9217 10.3132)">
<stop stop-color="#FFCC00"/>
<stop offset="1" stop-color="#FFCC00" stop-opacity="0"/>
</radialGradient>
<radialGradient id="paint3_radial_1_97" cx="0" cy="0" r="1" gradientUnits="userSpaceOnUse" gradientTransform="translate(3.25639 0.978058) rotate(164.274) scale(15.1645 5.16658)">
<stop stop-color="#780CFF"/>
<stop offset="1" stop-color="#820BFF" stop-opacity="0"/>
</radialGradient>
<clipPath id="clip0_1_97">
<rect width="24" height="24" fill="white"/>
</clipPath>
</defs>
</svg>
