<svg width="16" height="17" viewBox="0 0 16 17" fill="none" xmlns="http://www.w3.org/2000/svg">
<path d="M15.7563 6.80598C15.604 6.31408 15.2912 5.87492 14.9106 5.55827C13.8117 4.69978 12.137 4.63865 11.0048 5.41476C10.3872 5.80212 9.98136 6.56867 9.85505 7.35808C9.62594 8.65503 9.68512 10.1982 10.4972 11.1703C11.4442 12.1917 12.8225 12.4173 14.048 11.9977C14.1063 11.984 14.2908 11.9268 14.418 11.8437L14.4539 11.8248C14.8345 11.6302 15.1975 11.3133 15.4686 10.8842C16.0941 9.759 16.1369 8.07306 15.7563 6.80598ZM13.7609 9.7184C13.7176 9.96435 13.5832 10.2192 13.3711 10.3116C13.0335 10.4943 12.5768 10.4436 12.2641 10.2299C12.0018 10.0042 11.968 9.62646 11.9343 9.26897C11.9087 8.56426 11.8673 7.81801 12.0278 7.17374C12.1535 6.77471 12.5004 6.67204 12.8141 6.64194C13.1435 6.64194 13.4643 6.70377 13.6678 7.0307C13.7945 7.26521 13.7867 7.57206 13.8117 7.84835C13.8028 8.43055 13.8453 9.12499 13.7609 9.7184ZM3.74178 10.3531C3.4626 10.3321 3.14985 10.3622 2.87959 10.3214L2.88793 6.73294L2.905 6.70308L3.74178 6.69304C3.7505 6.1106 3.75885 5.48593 3.73305 4.95507L0.546218 4.9441L0.0214316 4.9553C0.0130867 5.49667 0.0130867 6.12974 0.0214316 6.68231C0.309144 6.69327 0.579218 6.68231 0.858396 6.71428V10.1895L0.850241 10.3323L0.0130867 10.3533C-0.00436222 10.9153 -0.00436222 11.478 0.0130867 12.04H3.74159L3.74178 10.3531ZM13.1261 12.8058C12.7714 13.43 12.3233 14.033 11.834 14.502C11.8161 14.534 11.7655 14.5219 11.7494 14.4925C11.5373 14.3294 11.3092 14.1959 11.1059 14.033C11.3767 13.6347 11.639 13.2361 11.8419 12.7949H11.5789C11.3687 13.1745 11.1483 13.5728 10.8695 13.9091C10.4972 13.7254 10.1593 13.5621 9.77881 13.4384L9.73651 13.3995C9.79569 13.1929 9.90531 12.999 9.93888 12.7944H9.71072L9.48256 13.3467C8.98433 13.214 8.43451 13.1416 7.92717 13.1012C7.90156 13.0095 7.93513 12.8765 7.90156 12.7944H7.68175C7.6643 12.9174 7.70716 13.01 7.65634 13.112C7.13212 13.1416 6.62497 13.214 6.13508 13.3379L5.90597 12.7944C5.82234 12.7944 5.72826 12.7748 5.66985 12.8054L5.88075 13.4086L5.85553 13.4384C5.4766 13.5733 5.10404 13.734 4.73957 13.9196L4.706 13.8986C4.46874 13.5817 4.24039 13.2357 4.05415 12.888C4.01223 12.7132 3.84306 12.8154 3.74993 12.7949C3.95211 13.2452 4.22351 13.6433 4.49359 14.0528C4.26543 14.2169 4.03803 14.3998 3.80019 14.534C3.28303 14.0494 2.8322 13.4661 2.46481 12.8063C2.36315 12.7862 2.2962 12.7953 2.19397 12.8063C2.80278 13.9716 3.74993 14.9935 4.73919 15.5967C4.73919 15.5967 4.73919 15.5876 4.7483 15.5876C4.7555 15.5876 4.77238 15.6065 4.75551 15.6172C5.42386 16.016 6.13451 16.3021 6.88632 16.4253C9.48218 16.8439 11.9597 15.4851 13.3962 12.8063C13.3064 12.7949 13.2159 12.7948 13.1261 12.8058ZM9.60129 13.7257L9.62613 13.7051C9.99066 13.8074 10.3366 13.9506 10.6581 14.1443C10.3872 14.5216 10.0405 14.8495 9.71963 15.1253C9.52542 15.2679 9.33026 15.4228 9.12714 15.5446L8.76432 15.3505L8.78917 15.2798C9.09414 14.7793 9.36478 14.2675 9.60129 13.7257ZM7.93513 13.4188C8.41744 13.43 8.89955 13.4912 9.34695 13.6235L9.35587 13.6545C9.11955 14.2059 8.82293 14.7386 8.50221 15.2385C8.35769 15.2595 8.22304 15.1888 8.07946 15.1778L7.93494 15.1568C7.91844 14.5536 7.90953 14.022 7.93513 13.4188ZM6.30407 13.6027C6.7437 13.5005 7.20002 13.4188 7.67321 13.4188L7.68194 15.1482C7.50404 15.1976 7.30964 15.1976 7.14046 15.2501C6.79377 14.748 6.50662 14.2059 6.26177 13.6433L6.30407 13.6027ZM4.94213 14.1553C5.2727 13.9604 5.61883 13.8165 5.97349 13.7049L6.00782 13.7156C6.25229 14.278 6.55707 14.8091 6.86129 15.3407C6.74389 15.4231 6.59937 15.4723 6.4814 15.5554C5.90964 15.2079 5.38938 14.7447 4.94232 14.1851L4.94213 14.1553ZM6.03324 15.9031C5.32296 15.6774 4.66295 15.2891 4.05434 14.7585V14.7267C4.25727 14.5748 4.46096 14.4108 4.68002 14.2972C5.16232 14.8815 5.66075 15.3211 6.20184 15.7392C6.15974 15.8006 6.09222 15.8622 6.03324 15.9031ZM9.16962 16.0351C8.27367 16.2717 7.2755 16.2808 6.37974 16.0155C6.36267 15.9647 6.42204 15.9537 6.44726 15.9238C7.23359 15.2996 8.45897 15.2996 9.22918 15.9735C9.25421 16.0351 9.18669 16.0155 9.16962 16.0351ZM9.98155 15.75L9.58422 15.9028C9.51632 15.862 9.45753 15.8006 9.39778 15.739L9.41485 15.7077C9.95614 15.3209 10.4462 14.8493 10.9114 14.2871C11.1398 14.3994 11.3598 14.5536 11.5633 14.7265C11.0893 15.1888 10.5395 15.494 9.98155 15.75ZM2.44831 4.16752C2.65743 3.81144 2.8862 3.47345 3.13297 3.15595C3.35203 2.90044 3.55572 2.65519 3.7928 2.47038C4.0128 2.64399 4.25765 2.78866 4.46893 2.95154C4.20701 3.34823 3.93637 3.74866 3.74197 4.17685C3.80076 4.20882 3.91114 4.19878 3.99592 4.17685C4.20701 3.79929 4.4346 3.42127 4.70619 3.08361C5.06882 3.24766 5.42443 3.4208 5.79692 3.54401L5.82973 3.58461L5.61921 4.17685C5.71252 4.19878 5.7717 4.18805 5.86406 4.17685C5.93992 4.00417 5.99872 3.81049 6.08331 3.63572C6.57433 3.76919 7.0902 3.84036 7.61442 3.8602C7.68156 3.93277 7.63111 4.08538 7.65653 4.17685H7.88468C7.90953 4.07651 7.87615 3.96264 7.90953 3.87163C8.40037 3.8399 8.91586 3.77852 9.39095 3.63525L9.43211 3.64598L9.66046 4.17638C9.7367 4.17638 9.83798 4.19832 9.89715 4.15538L9.68531 3.56408L9.70294 3.54354C10.0912 3.4208 10.4553 3.23692 10.8272 3.05328C11.0901 3.39047 11.3346 3.78903 11.5552 4.17615C11.6477 4.17615 11.7408 4.18735 11.8085 4.15515C11.7041 3.92693 11.5823 3.71144 11.4448 3.51157C11.3331 3.31581 11.2085 3.1317 11.0723 2.96111V2.90814L11.6642 2.48974L11.7496 2.44891C12.2643 2.92829 12.7148 3.50403 13.0846 4.15515C13.186 4.15515 13.2708 4.19808 13.3556 4.14651C12.2214 2.06295 10.3533 0.722366 8.33361 0.529387L8.32469 0.549222L8.30743 0.529387C8.07946 0.499285 7.79934 0.487385 7.55449 0.517486C7.46175 0.508619 7.35212 0.517486 7.24193 0.529387C5.21315 0.722366 3.34482 2.00088 2.17747 4.17732C2.26206 4.16752 2.36353 4.20905 2.44831 4.16752ZM5.95756 3.26936L5.9238 3.27823C5.57673 3.16692 5.23819 3.03274 4.9169 2.8596L4.93322 2.79823C5.39826 2.25663 5.88853 1.8065 6.42962 1.45975C6.55707 1.52112 6.68377 1.57175 6.81046 1.64432L6.78561 1.72413C6.46376 2.21603 6.21076 2.74643 5.95756 3.26936ZM7.63946 3.54448C7.40333 3.58531 7.19186 3.53538 6.95422 3.51274C6.72701 3.47167 6.43892 3.44204 6.21076 3.3487C6.45598 2.78913 6.74389 2.24636 7.0902 1.74676L7.63149 1.83754C7.65653 2.36817 7.63946 2.98187 7.63946 3.54448ZM7.90137 3.55544C7.88468 3.01198 7.89341 2.40971 7.90137 1.84734C8.07112 1.81747 8.25623 1.78573 8.42578 1.75563C8.75541 2.26596 9.07745 2.78913 9.29745 3.3487C8.8403 3.48478 8.37172 3.55417 7.90137 3.55544ZM10.5993 2.83883C10.2689 3.01174 9.93034 3.17555 9.56734 3.26936C9.30542 2.72753 9.01809 2.18592 8.69586 1.66253C8.81439 1.58249 8.95891 1.52112 9.08541 1.43968C9.63599 1.77663 10.168 2.25663 10.6156 2.80686L10.5993 2.83883ZM9.51632 1.09106C10.2266 1.31647 10.8946 1.70429 11.5034 2.23586L11.4865 2.2767L10.9037 2.67479H10.8606C10.4132 2.12479 9.88919 1.64432 9.35587 1.26513C9.37275 1.1935 9.45771 1.14193 9.51632 1.09106ZM9.17854 0.988383V1.01008C8.44247 1.66253 7.25066 1.72413 6.47324 1.12092C6.42962 1.08009 6.34617 1.06025 6.33707 0.988616C7.23378 0.734267 8.28999 0.713732 9.17854 0.988383ZM4.02077 2.25663C4.5539 1.77663 5.14544 1.41891 5.77132 1.17343C5.79692 1.14146 5.81323 1.11136 5.84661 1.11136V1.13236C5.91413 1.15243 5.96515 1.05979 6.02413 1.12046C6.07515 1.17343 6.13489 1.2138 6.17662 1.26467C5.65278 1.66253 5.13672 2.13365 4.66314 2.70489C4.43479 2.60455 4.22427 2.45031 4.02058 2.2767L4.02077 2.25663ZM7.64818 10.4329C6.85351 10.6992 5.99056 10.4961 5.4159 9.759C5.34857 9.65679 5.30589 9.53499 5.238 9.43325L4.09701 9.44305C4.07899 10.2707 4.07103 11.2216 4.09701 12.0397L5.36469 12.0297L5.38157 11.5387C5.5259 11.6204 5.66985 11.7224 5.81323 11.8141C6.69249 12.2645 7.82437 12.3667 8.69548 11.8141C9.33007 11.3859 9.66843 10.5582 9.57511 9.66706C9.48256 8.79924 8.80586 8.01169 8.12157 7.79771L6.07496 7.0713L5.92361 6.97889C5.85591 6.90795 5.81342 6.81648 5.82992 6.70308C5.99056 6.36659 6.36305 6.46879 6.64204 6.47789C7.23378 6.58033 7.84239 6.82558 8.18928 7.49039C8.56082 7.49039 8.99191 7.49926 9.3974 7.47966C9.41466 6.6417 9.39077 5.90619 9.38071 5.05751C9.00026 5.04677 8.53502 5.04677 8.15514 5.06824C8.13807 5.18981 8.17145 5.36296 8.12916 5.48617L7.74054 5.23042C6.81008 4.75019 5.50788 4.70002 4.66276 5.44626C4.11294 5.93606 3.94433 6.81602 4.0881 7.5926C4.19753 8.32741 4.77238 8.86971 5.32221 9.12453C6.07458 9.45121 6.86053 9.68783 7.62277 10.0042C7.69825 10.0458 7.79953 10.1384 7.78322 10.2507C7.7836 10.3414 7.70697 10.3939 7.64818 10.4329Z" fill="#47B59E"/>
</svg>
