<svg width="17" height="16" viewBox="0 0 17 16" fill="none" xmlns="http://www.w3.org/2000/svg">
<path d="M14.14 6.42004C14.0464 5.44599 13.7022 4.51276 13.1408 3.71126C12.5794 2.90975 11.8201 2.26726 10.9367 1.84637C10.0533 1.42548 9.07592 1.24052 8.09981 1.30951C7.1237 1.3785 6.18209 1.69908 5.36667 2.24004C4.66613 2.70847 4.07804 3.32624 3.64463 4.04897C3.21122 4.7717 2.94326 5.58145 2.86 6.42004C2.77832 7.25315 2.88312 8.09399 3.16678 8.88156C3.45045 9.66913 3.90587 10.3837 4.5 10.9734L8.03333 14.5134C8.09531 14.5759 8.16904 14.6255 8.25028 14.6593C8.33152 14.6932 8.41866 14.7106 8.50667 14.7106C8.59468 14.7106 8.68181 14.6932 8.76305 14.6593C8.84429 14.6255 8.91803 14.5759 8.98 14.5134L12.5 10.9734C13.0941 10.3837 13.5496 9.66913 13.8332 8.88156C14.1169 8.09399 14.2217 7.25315 14.14 6.42004ZM11.5667 10.0334L8.5 13.1L5.43333 10.0334C4.98139 9.58141 4.6352 9.03493 4.41965 8.43322C4.20409 7.8315 4.12452 7.18951 4.18667 6.55338C4.24921 5.90745 4.45451 5.28348 4.78771 4.7266C5.12092 4.16973 5.5737 3.69385 6.11333 3.33338C6.82063 2.86353 7.65087 2.61291 8.5 2.61291C9.34913 2.61291 10.1794 2.86353 10.8867 3.33338C11.4247 3.69245 11.8764 4.16623 12.2096 4.72067C12.5427 5.27511 12.7489 5.89644 12.8133 6.54004C12.8775 7.17833 12.7989 7.82289 12.5833 8.42708C12.3677 9.03126 12.0204 9.57993 11.5667 10.0334ZM8.5 4.00004C7.90666 4.00004 7.32664 4.17599 6.83329 4.50563C6.33994 4.83528 5.95543 5.30381 5.72836 5.85199C5.5013 6.40017 5.44189 7.00337 5.55765 7.58531C5.6734 8.16726 5.95912 8.70181 6.37868 9.12136C6.79824 9.54092 7.33279 9.82664 7.91473 9.9424C8.49667 10.0582 9.09987 9.99874 9.64805 9.77168C10.1962 9.54462 10.6648 9.1601 10.9944 8.66675C11.3241 8.17341 11.5 7.59339 11.5 7.00004C11.4982 6.20494 11.1816 5.4429 10.6194 4.88067C10.0571 4.31844 9.29511 4.0018 8.5 4.00004ZM8.5 8.66671C8.17036 8.66671 7.84813 8.56896 7.57405 8.38583C7.29997 8.20269 7.08635 7.94239 6.9602 7.63785C6.83406 7.33331 6.80105 6.99819 6.86536 6.67489C6.92967 6.35159 7.0884 6.05462 7.32149 5.82153C7.55458 5.58844 7.85155 5.42971 8.17485 5.3654C8.49815 5.30109 8.83326 5.3341 9.13781 5.46024C9.44235 5.58639 9.70265 5.80001 9.88578 6.07409C10.0689 6.34818 10.1667 6.67041 10.1667 7.00004C10.1667 7.44207 9.99107 7.86599 9.67851 8.17855C9.36595 8.49112 8.94203 8.66671 8.5 8.66671Z" fill="#47B59E"/>
</svg>
