<svg width="16" height="16" viewBox="0 0 16 16" fill="none" xmlns="http://www.w3.org/2000/svg">
<path d="M9.60668 4.35338C9.39762 4.39955 9.18107 4.40023 8.97173 4.35537C8.76238 4.31051 8.56513 4.22116 8.39335 4.09338C8.27917 4.00994 8.14142 3.96498 8.00001 3.96498C7.8586 3.96498 7.72085 4.00994 7.60668 4.09338C7.43489 4.22116 7.23764 4.31051 7.0283 4.35537C6.81895 4.40023 6.60241 4.39955 6.39335 4.35338C6.29597 4.33235 6.19512 4.33341 6.09821 4.35649C6.0013 4.37956 5.9108 4.42406 5.83335 4.48671C5.756 4.54946 5.69369 4.62873 5.65101 4.71872C5.60832 4.80871 5.58634 4.90711 5.58668 5.00671V6.94004C5.58201 7.36852 5.67717 7.7922 5.86463 8.17753C6.05208 8.56285 6.32668 8.89924 6.66668 9.16004L7.58001 9.82671C7.69419 9.91014 7.83193 9.95511 7.97335 9.95511C8.11476 9.95511 8.2525 9.91014 8.36668 9.82671L9.28001 9.16004C9.62491 8.90202 9.90463 8.56686 10.0968 8.18137C10.289 7.79589 10.3882 7.37077 10.3867 6.94004V5.00671C10.387 4.90711 10.365 4.80871 10.3223 4.71872C10.2797 4.62873 10.2174 4.54946 10.14 4.48671C10.0657 4.42784 9.9797 4.3855 9.88773 4.36251C9.79576 4.33952 9.69995 4.3364 9.60668 4.35338ZM9.08001 6.94004C9.08183 7.16312 9.03154 7.38355 8.93317 7.58377C8.83479 7.784 8.69104 7.95849 8.51335 8.09338L8.00001 8.47338L7.48668 8.09338C7.30899 7.95849 7.16523 7.784 7.06686 7.58377C6.96848 7.38355 6.9182 7.16312 6.92001 6.94004V5.71338C7.29649 5.68683 7.66378 5.58481 8.00001 5.41338C8.33624 5.58481 8.70353 5.68683 9.08001 5.71338V6.94004ZM13.64 6.42004C13.5464 5.44599 13.2022 4.51276 12.6408 3.71126C12.0794 2.90975 11.3201 2.26726 10.4367 1.84637C9.55327 1.42548 8.57593 1.24052 7.59982 1.30951C6.62371 1.3785 5.6821 1.69908 4.86668 2.24004C4.16614 2.70847 3.57805 3.32624 3.14464 4.04897C2.71123 4.7717 2.44328 5.58145 2.36001 6.42004C2.27833 7.25315 2.38313 8.09399 2.66679 8.88156C2.95046 9.66913 3.40588 10.3837 4.00001 10.9734L7.53335 14.5134C7.59532 14.5759 7.66905 14.6255 7.75029 14.6593C7.83153 14.6932 7.91867 14.7106 8.00668 14.7106C8.09469 14.7106 8.18182 14.6932 8.26306 14.6593C8.3443 14.6255 8.41804 14.5759 8.48001 14.5134L12 10.9734C12.5941 10.3837 13.0496 9.66913 13.3332 8.88156C13.6169 8.09399 13.7217 7.25315 13.64 6.42004V6.42004ZM11.0667 10.0334L8.00001 13.1L4.93335 10.0334C4.48141 9.58141 4.13521 9.03493 3.91966 8.43322C3.7041 7.8315 3.62454 7.18951 3.68668 6.55338C3.74922 5.90745 3.95452 5.28348 4.28773 4.7266C4.62093 4.16973 5.07372 3.69385 5.61335 3.33338C6.32064 2.86353 7.15088 2.61291 8.00001 2.61291C8.84914 2.61291 9.67938 2.86353 10.3867 3.33338C10.9247 3.69245 11.3765 4.16623 11.7096 4.72067C12.0427 5.27511 12.2489 5.89644 12.3133 6.54004C12.3775 7.17833 12.2989 7.82289 12.0833 8.42708C11.8677 9.03126 11.5205 9.57993 11.0667 10.0334V10.0334Z" fill="black"/>
</svg>
