<svg width="26" height="18" viewBox="0 0 26 18" fill="none" xmlns="http://www.w3.org/2000/svg">
<path d="M24.3914 5.87753C24.3952 5.94631 24.3901 6.01632 24.3729 6.08585L22.8308 12.2541C22.753 12.5648 22.4745 12.7833 22.1543 12.785L12.902 12.8317C12.9008 12.8317 12.8997 12.8317 12.8985 12.8317H3.64603C3.32416 12.8317 3.04369 12.6125 2.96593 12.3001L1.42388 6.10856C1.40612 6.03716 1.40098 5.96519 1.40547 5.89463C0.808925 5.70669 0.375 5.14846 0.375 4.49061C0.375 3.67893 1.03528 3.01865 1.84696 3.01865C2.65864 3.01865 3.31893 3.67893 3.31893 4.49061C3.31893 4.94772 3.10949 5.35669 2.78154 5.62688L4.7122 7.57211C5.20014 8.06379 5.87724 8.34566 6.56995 8.34566C7.38902 8.34566 8.16995 7.95669 8.66173 7.30501L11.8346 3.10089C11.5681 2.83454 11.403 2.4665 11.403 2.06071C11.403 1.24903 12.0633 0.588745 12.875 0.588745C13.6867 0.588745 14.347 1.24903 14.347 2.06071C14.347 2.45435 14.1907 2.81164 13.9381 3.07603C13.9389 3.07716 13.94 3.07809 13.9408 3.07931L17.0907 7.29501C17.5823 7.95295 18.366 8.34575 19.1874 8.34575C19.8865 8.34575 20.5439 8.07351 21.0382 7.57912L22.981 5.63632C22.6461 5.36622 22.4311 4.95332 22.4311 4.49061C22.4311 3.67893 23.0914 3.01865 23.903 3.01865C24.7147 3.01865 25.375 3.67893 25.375 4.49061C25.375 5.13089 24.9633 5.67547 24.3914 5.87753ZM22.6803 15.028C22.6803 14.6409 22.3665 14.3271 21.9794 14.3271H3.84855C3.46145 14.3271 3.14762 14.6409 3.14762 15.028V16.7102C3.14762 17.0973 3.46145 17.4112 3.84855 17.4112H21.9794C22.3665 17.4112 22.6803 17.0973 22.6803 16.7102V15.028Z" fill="url(#paint0_linear_1_113)"/>
<defs>
<linearGradient id="paint0_linear_1_113" x1="20.8104" y1="9" x2="7.24227" y2="9.05722" gradientUnits="userSpaceOnUse">
<stop stop-color="#756429"/>
<stop offset="0.354167" stop-color="#E8C41E"/>
<stop offset="0.578125" stop-color="#FED700"/>
<stop offset="1" stop-color="#A28B31"/>
</linearGradient>
</defs>
</svg>
