<svg width="16" height="16" viewBox="0 0 16 16" fill="none" xmlns="http://www.w3.org/2000/svg">
<rect x="0.5" y="0.5" width="15" height="15" rx="7.5" fill="white" stroke="#47B59E"/>
<path d="M6.11198 5.3125H8.23307C8.66797 5.3125 9.04167 5.3776 9.35417 5.50781C9.66927 5.63802 9.91146 5.83073 10.0807 6.08594C10.25 6.34115 10.3346 6.65495 10.3346 7.02734C10.3346 7.33203 10.2826 7.59375 10.1784 7.8125C10.0768 8.02865 9.93229 8.20964 9.74479 8.35547C9.5599 8.4987 9.34245 8.61328 9.09245 8.69922L8.72135 8.89453H6.8776L6.86979 7.98047H8.24089C8.44661 7.98047 8.61719 7.94401 8.7526 7.87109C8.88802 7.79818 8.98958 7.69661 9.05729 7.56641C9.1276 7.4362 9.16276 7.28516 9.16276 7.11328C9.16276 6.93099 9.12891 6.77344 9.0612 6.64062C8.99349 6.50781 8.89062 6.40625 8.7526 6.33594C8.61458 6.26562 8.44141 6.23047 8.23307 6.23047H7.28385V11H6.11198V5.3125ZM9.29167 11L7.99479 8.46484L9.23307 8.45703L10.5456 10.9453V11H9.29167Z" fill="#47B59E"/>
</svg>
