<svg width="24" height="24" viewBox="0 0 24 24" fill="none" xmlns="http://www.w3.org/2000/svg">
<g clip-path="url(#clip0_1_104)">
<path d="M1.18125 0H22.8187C23.475 0 24 0.525 24 1.18125V22.8187C24 23.475 23.475 24 22.8187 24H1.18125C0.525 24 0 23.475 0 22.8187V1.18125C0 0.525 0.525 0 1.18125 0Z" fill="#1DA1F2"/>
<path d="M16.4391 7.38755C15.9563 6.82036 15.2578 6.4688 14.5172 6.4688C13.0313 6.42661 11.85 7.69224 11.85 9.22505C11.85 9.44536 11.8922 9.66099 11.9391 9.8813C9.75001 9.75005 7.78126 8.5688 6.46876 6.86255C6.24844 7.2563 6.11719 7.7813 6.11719 8.25942C6.11719 9.26255 6.60001 10.0969 7.29844 10.6219C6.86251 10.6219 6.46876 10.4907 6.07501 10.2704V10.3125C6.07501 11.6672 6.99376 12.8485 8.21719 13.111C7.99688 13.1532 7.78126 13.2 7.51876 13.2C7.34532 13.2 7.16719 13.2 7.03594 13.1579C7.38751 14.2922 8.34844 15.1266 9.52969 15.1266C8.61094 15.8719 7.47657 16.35 6.25313 16.3079C6.03282 16.3079 5.81719 16.3079 5.63907 16.2657C6.82032 17.0532 8.21719 17.5313 9.70313 17.5313C14.6016 17.5313 17.2641 13.2891 17.2641 9.57661C17.2641 9.44536 17.2641 9.31411 17.2641 9.22505C17.7891 8.8313 18.225 8.34849 18.5766 7.7813C18.0938 8.00161 17.5734 8.13286 17.0484 8.21724C17.6156 7.86567 18.0094 7.34067 18.2297 6.68911C17.6156 7.03599 17.0484 7.2563 16.4391 7.38755Z" fill="white"/>
</g>
<defs>
<clipPath id="clip0_1_104">
<rect width="24" height="24" fill="white"/>
</clipPath>
</defs>
</svg>
