<svg width="24" height="24" viewBox="0 0 24 24" fill="none" xmlns="http://www.w3.org/2000/svg">
<rect width="24" height="24" rx="2" fill="white"/>
<path d="M23.3457 6.27993C23.0731 5.2599 22.2696 4.45642 21.2495 4.18376C19.4007 3.68823 11.9866 3.68823 11.9866 3.68823C11.9866 3.68823 4.57237 3.68823 2.72356 4.18376C1.70353 4.45642 0.90005 5.2599 0.627392 6.27993C0.131866 8.12873 0.131866 11.9865 0.131866 11.9865C0.131866 11.9865 0.131866 15.8443 0.627392 17.6931C0.90005 18.7131 1.70353 19.5166 2.72356 19.7893C4.57237 20.2848 11.9866 20.2848 11.9866 20.2848C11.9866 20.2848 19.4007 20.2848 21.2495 19.7893C22.2696 19.5166 23.0731 18.7131 23.3457 17.6931C23.8412 15.8443 23.8412 11.9865 23.8412 11.9865C23.8412 11.9865 23.8412 8.12873 23.3457 6.27993Z" fill="#FF0000"/>
<path d="M9.61562 15.5429L15.7748 11.9865L9.61562 8.43005V15.5429Z" fill="white"/>
</svg>
